<mxfile host="app.diagrams.net" modified="2024-02-04T22:29:24.410Z" agent="Mozilla/5.0 (Macintosh; Intel Mac OS X 10_15_7) AppleWebKit/605.1.15 (KHTML, like Gecko) Version/17.2.1 Safari/605.1.15" version="23.1.1" etag="WJjeD3dc5r2DkV5U8LkU" type="github">
  <diagram name="Page-1" id="rn2iR9P1pemDrawHEx0V">
    <mxGraphModel>
      <root>
        <mxCell id="0" />
        <mxCell id="1" parent="0" />
      </root>
    </mxGraphModel>
  </diagram>
</mxfile>
